<svg width="25" height="24" viewBox="0 0 25 24" fill="none" xmlns="http://www.w3.org/2000/svg">
<path d="M22.5217 3.75H3.02167C2.60682 3.75 2.27167 4.08516 2.27167 4.5V19.5C2.27167 19.9148 2.60682 20.25 3.02167 20.25H22.5217C22.9365 20.25 23.2717 19.9148 23.2717 19.5V4.5C23.2717 4.08516 22.9365 3.75 22.5217 3.75ZM21.5842 6.34687V18.5625H3.95917V6.34687L3.31229 5.84297L4.23339 4.65938L5.23651 5.43984H20.3092L21.3123 4.65938L22.2334 5.84297L21.5842 6.34687ZM20.3092 5.4375L12.7717 11.2969L5.23417 5.4375L4.23104 4.65703L3.30995 5.84062L3.95682 6.34453L11.9631 12.5695C12.1933 12.7484 12.4766 12.8455 12.7682 12.8455C13.0597 12.8455 13.343 12.7484 13.5732 12.5695L21.5842 6.34687L22.231 5.84297L21.3099 4.65938L20.3092 5.4375Z" fill="#ADB5BD"/>
</svg>
