<svg width="24" height="24" viewBox="0 0 24 24" fill="none" xmlns="http://www.w3.org/2000/svg">
<g clip-path="url(#clip0_3_97)">
<path fill-rule="evenodd" clip-rule="evenodd" d="M1.60001 2.4C1.60001 1.76348 1.85286 1.15303 2.30295 0.702944C2.75304 0.252856 3.36349 0 4.00001 0L17.1312 0L22.4 5.2688V21.6C22.4 22.2365 22.1472 22.847 21.6971 23.2971C21.247 23.7471 20.6365 24 20 24H4.00001C3.36349 24 2.75304 23.7471 2.30295 23.2971C1.85286 22.847 1.60001 22.2365 1.60001 21.6V2.4ZM11.2384 16.3712L17.4016 9.3264L16.1984 8.2736L11.1616 14.0304L8.56641 11.4336L7.43361 12.5664L11.2384 16.3712Z" fill="#ADB5BD"/>
</g>
<defs>
<clipPath id="clip0_3_97">
<rect width="24" height="24" fill="white"/>
</clipPath>
</defs>
</svg>
