<svg width="20" height="20" viewBox="0 0 20 20" fill="none" xmlns="http://www.w3.org/2000/svg">
<path d="M18.7633 10.5086C19.157 9.98829 19.375 9.35079 19.375 8.68751C19.375 7.63517 18.7867 6.63907 17.8398 6.08361C17.5961 5.94063 17.3185 5.86537 17.0359 5.86564H11.4156L11.5563 2.98517C11.5891 2.28907 11.343 1.62814 10.8648 1.12423C10.6302 0.875858 10.3471 0.678245 10.0331 0.543602C9.71905 0.408958 9.38074 0.340146 9.03906 0.341417C7.82031 0.341417 6.74219 1.16173 6.41875 2.33595L4.40547 9.62501H4.39844V19.6563H15.468C15.6836 19.6563 15.8945 19.6141 16.0891 19.5297C17.2047 19.0539 17.9242 17.9641 17.9242 16.7547C17.9242 16.4594 17.882 16.1688 17.7977 15.8875C18.1914 15.3672 18.4094 14.7297 18.4094 14.0664C18.4094 13.7711 18.3672 13.4805 18.2828 13.1992C18.6766 12.6789 18.8945 12.0414 18.8945 11.3781C18.8898 11.0828 18.8477 10.7899 18.7633 10.5086ZM0.625 10.375V18.9063C0.625 19.3211 0.960156 19.6563 1.375 19.6563H2.89844V9.62501H1.375C0.960156 9.62501 0.625 9.96017 0.625 10.375Z" fill="#ADB5BD"/>
</svg>
