<svg width="24" height="24" viewBox="0 0 24 24" fill="none" xmlns="http://www.w3.org/2000/svg">
<path d="M17.0016 0.892782C18.1734 -0.278999 20.0766 -0.278999 21.2484 0.892782L23.0953 2.74106C24.2672 3.91247 24.2672 5.81372 23.0953 6.9856L20.8266 9.25434L14.7328 3.16153L17.0016 0.892782ZM19.7672 10.3137L8.83593 21.2403C8.34843 21.7278 7.74374 22.0887 7.0828 22.2809L1.44233 23.9403C1.04764 24.0575 0.620613 23.9497 0.329519 23.6168C0.0384254 23.3684 -0.0704183 22.9418 0.0457379 22.5434L1.70483 16.9043C1.89983 16.2434 2.25749 15.6387 2.74546 15.1512L13.6734 4.22184L19.7672 10.3137Z" fill="#ADB5BD"/>
</svg>
