<svg width="34" height="41" viewBox="0 0 34 41" fill="none" xmlns="http://www.w3.org/2000/svg">
<path d="M17.0006 40.834C19.2923 40.834 21.1673 38.959 21.1673 36.6673H12.834C12.834 38.959 14.709 40.834 17.0006 40.834ZM29.5006 31.459V17.9173C29.5006 11.5215 26.1048 6.16732 20.1256 4.75065V3.33398C20.1256 1.60482 18.7298 0.208984 17.0006 0.208984C15.2715 0.208984 13.8756 1.60482 13.8756 3.33398V4.75065C7.91732 6.16732 4.50065 11.5007 4.50065 17.9173V31.459L0.333984 32.5007V34.584H33.6673V32.5007L29.5006 31.459ZM27.4173 32.5007H6.58398V17.9173C6.58398 12.709 9.70898 5.41732 17.0006 6.45899C24.2923 5.41732 27.4173 12.7507 27.4173 17.9173V32.5007Z" fill="white"/>
</svg>
