<svg width="24" height="24" viewBox="0 0 24 24" fill="none" xmlns="http://www.w3.org/2000/svg">
<path d="M22.5 18H19.5V15H18V18H15V19.5H18V22.5H19.5V19.5H22.5V18Z" fill="#ADB5BD"/>
<path d="M12 21H6V3.00001H12V7.50001C12.0012 7.89747 12.1596 8.27831 12.4407 8.55936C12.7217 8.84041 13.1025 8.99882 13.5 9.00001H18V12H19.5V7.50001C19.5026 7.40144 19.4839 7.30347 19.4451 7.21284C19.4062 7.12221 19.3482 7.04107 19.275 6.97501L14.025 1.72501C13.959 1.65177 13.8778 1.59372 13.7872 1.55488C13.6966 1.51603 13.5986 1.49731 13.5 1.50001H6C5.60254 1.5012 5.2217 1.65961 4.94065 1.94066C4.6596 2.22171 4.50119 2.60255 4.5 3.00001V21C4.50119 21.3975 4.6596 21.7783 4.94065 22.0594C5.2217 22.3404 5.60254 22.4988 6 22.5H12V21ZM13.5 3.30001L17.7 7.50001H13.5V3.30001Z" fill="#ADB5BD"/>
</svg>
