<svg width="23" height="22" viewBox="0 0 23 22" fill="none" xmlns="http://www.w3.org/2000/svg">
<path d="M21.8852 10.9561C21.8852 10.9537 21.8828 10.9537 21.8828 10.9514L21.8406 10.9022C21.8383 10.8998 21.8359 10.8951 21.8312 10.8928C21.8148 10.8741 21.7961 10.8553 21.7797 10.8366L12.7234 1.78733L12.1164 1.1803C11.9781 1.0429 11.791 0.96579 11.5961 0.96579C11.4011 0.96579 11.2141 1.0429 11.0758 1.1803L1.41249 10.8389C1.23792 11.0125 1.10908 11.2267 1.03749 11.4623L1.02343 11.5116L1.0164 11.5373L1.00937 11.5655C1.00468 11.5819 1.00234 11.5983 0.999994 11.6147C0.999994 11.617 0.999994 11.6217 0.99765 11.6241C0.983588 11.6944 0.976556 11.7647 0.974213 11.8373V11.9147C0.974213 11.9264 0.974213 11.9381 0.976556 11.9498C0.976556 11.9616 0.976556 11.9709 0.9789 11.9826C0.9789 11.9944 0.981244 12.0061 0.981244 12.0178C0.981244 12.0319 0.983588 12.0459 0.985931 12.06C0.985931 12.067 0.988275 12.0741 0.988275 12.0811L0.995306 12.1397V12.142C1.11484 12.8569 1.74999 13.3959 2.49531 13.3959H3.4914V21.0342H19.7031V13.4006H20.7203C20.9219 13.4006 21.1164 13.3608 21.2945 13.2858C21.4727 13.2108 21.6391 13.1006 21.782 12.96C21.9217 12.8208 22.0323 12.6553 22.1075 12.473C22.1828 12.2908 22.2211 12.0954 22.2203 11.8983C22.2203 11.5537 22.1031 11.2233 21.8852 10.9561ZM12.9086 19.3467H10.2836V14.5655H12.9086V19.3467ZM18.0156 11.7131V19.3467H14.4086V14.003C14.4086 13.485 13.9891 13.0655 13.4711 13.0655H9.72109C9.20312 13.0655 8.78359 13.485 8.78359 14.003V19.3467H5.17656V11.7131H2.92656L11.5984 3.04827L12.1398 3.58968L20.268 11.7131H18.0156Z" fill="#ADB5BD"/>
</svg>
