<svg width="25" height="24" viewBox="0 0 25 24" fill="none" xmlns="http://www.w3.org/2000/svg">
<path d="M21.5039 8.27578L15.5531 7.41093L12.893 2.01797C12.8203 1.87031 12.7008 1.75078 12.5531 1.67812C12.1828 1.49531 11.7328 1.64765 11.5476 2.01797L8.88749 7.41093L2.93671 8.27578C2.77265 8.29922 2.62265 8.37656 2.5078 8.49375C2.36896 8.63645 2.29246 8.82843 2.29509 9.02752C2.29773 9.2266 2.3793 9.41649 2.52187 9.55547L6.82734 13.7531L5.81015 19.6805C5.78629 19.8183 5.80155 19.9602 5.85419 20.0898C5.90683 20.2195 5.99475 20.3318 6.10796 20.414C6.22118 20.4962 6.35518 20.5451 6.49476 20.555C6.63433 20.565 6.77391 20.5356 6.89765 20.4703L12.2203 17.6719L17.543 20.4703C17.6883 20.5477 17.857 20.5734 18.0187 20.5453C18.4266 20.475 18.7008 20.0883 18.6305 19.6805L17.6133 13.7531L21.9187 9.55547C22.0359 9.44062 22.1133 9.29062 22.1367 9.12656C22.2 8.7164 21.9141 8.33672 21.5039 8.27578Z" fill="#ADB5BD"/>
</svg>
