<svg width="18" height="18" viewBox="0 0 18 18" fill="none" xmlns="http://www.w3.org/2000/svg">
<path fill-rule="evenodd" clip-rule="evenodd" d="M16.9906 16.111C16.9622 16.6214 16.7394 17.1016 16.368 17.453C15.9966 17.8043 15.5048 18 14.9936 18H2.77758C2.26635 18 1.77452 17.8043 1.40312 17.453C1.03172 17.1016 0.808956 16.6214 0.780583 16.111L0.00308276 2.111C-0.0120108 1.83946 0.028433 1.5677 0.121942 1.31233C0.215451 1.05695 0.36006 0.823329 0.546929 0.625743C0.733798 0.428157 0.959 0.270757 1.20877 0.163167C1.45854 0.0555771 1.72763 5.67552e-05 1.99958 1.70694e-09H15.7716C16.0436 -1.12353e-05 16.3127 0.055459 16.5626 0.163019C16.8124 0.270579 17.0376 0.427968 17.2246 0.625561C17.4115 0.823154 17.5561 1.0568 17.6497 1.31221C17.7432 1.56762 17.7837 1.83942 17.7686 2.111L16.9906 16.111ZM14.0076 5.8895C14.4176 5.6195 14.5206 5.084 14.1841 4.7355C13.6133 4.14651 12.9462 3.65919 12.2116 3.2945C11.1915 2.78855 10.0711 2.51742 8.93258 2.501C7.79302 2.48211 6.66365 2.7182 5.62708 3.192C4.87974 3.53347 4.19584 3.99944 3.60458 4.57C3.25608 4.908 3.33958 5.446 3.74008 5.729L5.89608 7.252C6.29608 7.535 6.86008 7.4435 7.27458 7.1795C7.38151 7.11167 7.49294 7.0512 7.60808 6.9985C7.97611 6.83017 8.37541 6.74107 8.78008 6.737L10.4766 4.7865C10.5636 4.68638 10.6868 4.62492 10.8191 4.61564C10.8846 4.61104 10.9504 4.61939 11.0127 4.64022C11.0749 4.66104 11.1325 4.69393 11.1821 4.737C11.2317 4.78007 11.2723 4.83249 11.3016 4.89126C11.3309 4.95002 11.3483 5.01399 11.3529 5.0795C11.3575 5.14501 11.3492 5.21079 11.3284 5.27307C11.3075 5.33535 11.2747 5.39293 11.2316 5.4425L9.91558 6.955C10.0938 7.02876 10.264 7.12057 10.4236 7.229C10.8286 7.5055 11.3886 7.614 11.7986 7.344L14.0071 5.889L14.0076 5.8895Z" fill="#ADB5BD"/>
</svg>
