<svg width="25" height="24" viewBox="0 0 25 24" fill="none" xmlns="http://www.w3.org/2000/svg">
<path d="M19.4102 16.35V10.745C19.4092 9.25312 18.9055 7.80512 17.9804 6.63467C17.0554 5.46423 15.7629 4.63964 14.3117 4.29399V3.80149C14.3117 3.39014 14.1483 2.99563 13.8574 2.70477C13.5665 2.4139 13.172 2.25049 12.7607 2.25049C12.3493 2.25049 11.9548 2.4139 11.6639 2.70477C11.3731 2.99563 11.2097 3.39014 11.2097 3.80149V4.29999C9.76343 4.64956 8.47665 5.47507 7.55599 6.64391C6.63534 7.81275 6.13423 9.2571 6.13317 10.745V16.35L4.03017 18.453V19.4245H21.5132V18.453L19.4102 16.35Z" stroke="#ADB5BD" stroke-width="0.5" stroke-linecap="round" stroke-linejoin="round"/>
<path d="M10.4347 19.4245C10.4301 19.7328 10.487 20.0389 10.6018 20.325C10.7167 20.6112 10.8873 20.8716 11.1037 21.0912C11.3201 21.3108 11.578 21.4852 11.8624 21.6043C12.1468 21.7233 12.4521 21.7846 12.7604 21.7846C13.0687 21.7846 13.374 21.7233 13.6584 21.6043C13.9428 21.4852 14.2007 21.3108 14.4172 21.0912C14.6336 20.8716 14.8042 20.6112 14.919 20.325C15.0339 20.0389 15.0907 19.7328 15.0862 19.4245" stroke="#ADB5BD" stroke-width="0.5" stroke-linecap="round" stroke-linejoin="round"/>
</svg>
