<svg width="25" height="24" viewBox="0 0 25 24" fill="none" xmlns="http://www.w3.org/2000/svg">
<path d="M2.84531 20.625C2.84531 21.0398 3.18046 21.375 3.59531 21.375H20.8453C21.2602 21.375 21.5953 21.0398 21.5953 20.625V10.7812H2.84531V20.625ZM20.8453 4.3125H16.9078V2.8125C16.9078 2.70937 16.8234 2.625 16.7203 2.625H15.4078C15.3047 2.625 15.2203 2.70937 15.2203 2.8125V4.3125H9.22031V2.8125C9.22031 2.70937 9.13593 2.625 9.03281 2.625H7.72031C7.61718 2.625 7.53281 2.70937 7.53281 2.8125V4.3125H3.59531C3.18046 4.3125 2.84531 4.64766 2.84531 5.0625V9.1875H21.5953V5.0625C21.5953 4.64766 21.2602 4.3125 20.8453 4.3125Z" fill="#ADB5BD"/>
</svg>
