<svg width="25" height="24" viewBox="0 0 25 24" fill="none" xmlns="http://www.w3.org/2000/svg">
<path d="M12.4742 0C6.67578 0 1.97421 4.70156 1.97421 10.5C1.97421 16.2984 6.67578 21 12.4742 21C18.2726 21 22.9742 16.2984 22.9742 10.5C22.9742 4.70156 18.2726 0 12.4742 0ZM16.9742 11.0625C16.9742 11.1656 16.8898 11.25 16.7867 11.25H13.2242V14.8125C13.2242 14.9156 13.1398 15 13.0367 15H11.9117C11.8086 15 11.7242 14.9156 11.7242 14.8125V11.25H8.16171C8.05859 11.25 7.97421 11.1656 7.97421 11.0625V9.9375C7.97421 9.83438 8.05859 9.75 8.16171 9.75H11.7242V6.1875C11.7242 6.08437 11.8086 6 11.9117 6H13.0367C13.1398 6 13.2242 6.08437 13.2242 6.1875V9.75H16.7867C16.8898 9.75 16.9742 9.83438 16.9742 9.9375V11.0625Z" fill="#ADB5BD"/>
</svg>
